<svg id="Layer_1" data-name="Layer 1" xmlns="http://www.w3.org/2000/svg" viewBox="0 0 134.93 134.93"><defs><style>.cls-1{fill:#174991;}.cls-2{fill:#29abe2;}</style></defs><title>newaccount</title><g id="OW9wL5"><path class="cls-1" d="M73,78.25c21.61,0,39.44,14.92,43.29,35.15a70.06,70.06,0,0,1,.91,8c.15,2.14-.84,3.35-2.48,3.43s-2.65-1-2.77-3.24a43.83,43.83,0,0,0-2.55-13.21c-6.87-18.3-26.18-28.17-43.78-23.67a38.17,38.17,0,0,0-28.55,32c-.21,1.59-.31,3.2-.4,4.8-.11,2.09-1.09,3.34-2.7,3.34s-2.68-1.22-2.66-3.33a42.73,42.73,0,0,1,14.26-32A41.54,41.54,0,0,1,73,78.25Z" transform="translate(-6.83 -7.89)"/><path class="cls-1" d="M74.29,32.49a21.44,21.44,0,0,1,.07,42.88c-11.73,0-21.09-9.66-21.06-21.82A21.14,21.14,0,0,1,74.29,32.49Zm.5,5.29c-8.4-.4-15.77,6.56-16.18,15.29s6.39,16.59,15,17a16.14,16.14,0,0,0,1.23-32.25Z" transform="translate(-6.83 -7.89)"/></g><g id="HMWZII"><path class="cls-2" d="M74.3,7.89a67.55,67.55,0,0,1,67.46,67.44c.11,37.08-30.14,67.36-67.42,67.48-37.1.13-67.56-30.33-67.51-67.48A67.56,67.56,0,0,1,74.3,7.89ZM15.24,75.37a59,59,0,1,0,59-59.08A59.06,59.06,0,0,0,15.24,75.37Z" transform="translate(-6.83 -7.89)"/></g></svg>